<svg xmlns="http://www.w3.org/2000/svg" viewBox="0 0 6070.0 1264.0" width="6070" height="1264" fill="none" role="img" aria-label="phantom_">
  <style>.wm{fill:#16171f}.cur{fill:#6c63ff}</style>
  <defs><clipPath id="phDisc"><circle cx="632.00" cy="632.00" r="542.00"/></clipPath></defs>
  <g clip-path="url(#phDisc)">
    <circle cx="632.00" cy="632.00" r="542.00" fill="#b7b2ff"/>
    <circle cx="848.80" cy="415.20" r="542.00" fill="#5b54f0"/>
  </g>
  <path class="wm" transform="translate(1450.00 907.00) scale(1 -1)" d="M84 -180V550H191V446Q202 500 241.5 530.0Q281 560 341 560Q423 560 472.0 503.5Q521 447 521 353V198Q521 103 472.0 46.5Q423 -10 341 -10Q281 -10 241.0 21.5Q201 53 190 108H189L192 -23V-180ZM303 84Q355 84 384.0 111.5Q413 139 413 200V351Q413 411 384.0 438.5Q355 466 303 466Q251 466 221.5 434.5Q192 403 192 346V205Q192 147 221.5 115.5Q251 84 303 84ZM654 0V730H762V550L761 445Q769 499 807.5 529.5Q846 560 908 560Q990 560 1039.0 507.5Q1088 455 1088 366V0H980V351Q980 407 951.0 437.5Q922 468 872 468Q821 468 791.5 436.0Q762 404 762 347V0ZM1385 -10Q1301 -10 1251.5 37.5Q1202 85 1202 162Q1202 240 1255.0 287.5Q1308 335 1396 335H1548V375Q1548 470 1441 470Q1393 470 1364.0 452.0Q1335 434 1333 402H1227Q1232 471 1289.0 515.5Q1346 560 1442 560Q1544 560 1600.0 511.5Q1656 463 1656 376V0H1550V103H1549Q1542 50 1499.0 20.0Q1456 -10 1385 -10ZM1416 79Q1477 79 1512.5 108.5Q1548 138 1548 188V259H1404Q1361 259 1335.5 234.0Q1310 209 1310 170Q1310 128 1338.0 103.5Q1366 79 1416 79ZM1794 0V550H1901V445Q1909 499 1947.5 529.5Q1986 560 2048 560Q2130 560 2179.0 507.5Q2228 455 2228 366V0H2120V350Q2120 407 2091.0 437.5Q2062 468 2012 468Q1961 468 1931.5 436.0Q1902 404 1902 347V0ZM2635 0Q2562 0 2519.0 42.0Q2476 84 2476 156V452H2321V550H2476V705H2584V550H2806V452H2584V157Q2584 131 2599.0 114.5Q2614 98 2640 98H2801V0ZM3150 -9Q3048 -9 2987.5 50.0Q2927 109 2927 211V339Q2927 442 2987.0 500.5Q3047 559 3150 559Q3253 559 3313.0 500.5Q3373 442 3373 339V211Q3373 109 3312.5 50.0Q3252 -9 3150 -9ZM3150 86Q3204 86 3234.5 116.5Q3265 147 3265 204V346Q3265 403 3234.5 433.5Q3204 464 3150 464Q3096 464 3065.5 433.5Q3035 403 3035 346V204Q3035 147 3065.5 116.5Q3096 86 3150 86ZM3473 0V550H3565V473H3567Q3571 512 3596.0 536.0Q3621 560 3659 560Q3695 560 3720.5 537.5Q3746 515 3756 477Q3762 515 3787.0 537.5Q3812 560 3851 560Q3902 560 3934.5 520.5Q3967 481 3967 419V0H3869V414Q3869 444 3855.0 461.5Q3841 479 3816 479Q3791 479 3777.5 462.0Q3764 445 3764 415V0H3676V414Q3676 444 3662.5 461.5Q3649 479 3624 479Q3599 479 3585.0 462.0Q3571 445 3571 415V0Z"/>
  <path class="cur" transform="translate(1450.00 907.00) scale(1 -1)" d="M4050 -119V-25H4530V-119Z"/>
</svg>
